<svg xmlns="http://www.w3.org/2000/svg" xmlns:xlink="http://www.w3.org/1999/xlink" version="1.1" x="0px" y="0px" viewBox="0 0 100 125" style="enable-background:new 0 0 100 100;" xml:space="preserve"><style type="text/css">
	.st0{fill:none;}
</style><path d="M94.4970703,22.6717587L94.4370117,21.95014l-0.6883545-0.2245483  c-0.711792-0.2318726-17.552063-5.595459-27.4039917,2.197998c-9.6819458,7.6589355-13.4094849,19.1932354-8.6277466,26.1412334  C53.4110107,55.0914345,51.1308594,60.0092201,50,64.321907c-1.1308594-4.3126869-3.4110107-9.2304726-7.7169189-14.2570839  c4.7817383-6.947998,1.0541992-18.4822979-8.6277466-26.1412334c-9.8519287-7.793457-26.6921997-2.4298706-27.4039917-2.197998  L5.5629883,21.95014l-0.0600586,0.7216187c-0.0618286,0.7459717-1.4049072,18.3686504,8.4470215,26.1621075  c9.4659424,7.4880371,21.232666,8.5913696,27.0438232,2.7941284c11.4434204,13.6188393,7.164856,26.5233803,7.1185303,26.6566811  l0.0019531,0.0006714c-0.0278931,0.1120605-0.0439453,0.2277832-0.0439453,0.3469849  c0,0.9147339,0.8639526,1.65625,1.9296875,1.65625s1.9296875-0.7415161,1.9296875-1.65625  c0-0.1192017-0.0160522-0.2349243-0.0439453-0.3469849l0.0019531-0.0006714  c-0.0463257-0.1333008-4.3248901-13.0378418,7.1185303-26.6566811c5.8111572,5.7972412,17.5778809,4.6939087,27.0438232-2.7941284  C95.9019775,41.0404091,94.5588989,23.4177303,94.4970703,22.6717587z M15.3016968,47.1251259  c-7.0640259-5.5880127-7.736084-17.374754-7.6991577-22.1725445l12.5014648,9.8892803l-5.7836304,0.5671997l0.2127686,2.1677246  l8.0323486-0.7877197l6.6708374,5.2769775l-11.6276245,1.3565063l0.2524414,2.1638184l13.7914429-1.6088867l7.7681885,6.1450195  C34.3821411,55.1214027,23.883606,53.9138832,15.3016968,47.1251259z M40.772522,48.4137611l-4.8847046-3.8640137  l-1.605957-13.7660503l-2.1638184,0.2523804l1.3535156,11.602232l-6.661438-5.2695313l-1.1317749-9.7014141l-2.1638184,0.2524414  l0.8793335,7.5375347L8.9553833,23.2446957c4.6630249-1.137146,16.2946777-3.1921387,23.3482666,2.3876343  C40.8856201,32.4211464,44.4772949,42.359745,40.772522,48.4137611z M67.6963501,25.6323299  c7.0535889-5.5797729,18.6852417-3.5247803,23.3482666-2.3876343L75.6061401,35.4573402l0.8793335-7.5375347l-2.1638184-0.2524414  l-1.1317749,9.7014141l-6.661438,5.2695313l1.3535156-11.602232l-2.1638184-0.2523804l-1.605957,13.7660503l-4.8847046,3.8640137  C55.5227051,42.359745,59.1143799,32.4211464,67.6963501,25.6323299z M84.6983032,47.1251259  c-8.5819092,6.7887573-19.0804443,7.9962769-24.1190796,2.9973755l7.7681885-6.1450195l13.7914429,1.6088867l0.2524414-2.1638184  l-11.6276245-1.3565063l6.6708374-5.2769775l8.0323486,0.7877197l0.2127686-2.1677246l-5.7836304-0.5671997l12.5014648-9.8892803  C92.4343872,29.7503719,91.7623291,41.5371132,84.6983032,47.1251259z"/></svg>